manchu.ufo
<glyph name="_Aw.fina" format="2">
  <advance width="529"/>
  <anchor x="0" y="0" name="baluda"/>
  <anchor x="0" y="0" name="dagalga"/>
  <outline>
    <contour>
      <point x="328" y="206" type="line"/>
      <point x="412" y="206" type="line"/>
      <point x="484" y="444" type="line"/>
      <point x="0" y="444" type="line"/>
      <point x="0" y="364" type="line"/>
      <point x="376" y="364" type="line"/>
    </contour>
  </outline>
</glyph>
<glyph name="_B.init" format="2">
  <advance width="557"/>
  <outline>
    <contour>
      <point x="264" y="123" type="curve"/>
      <point x="173" y="123"/>
      <point x="127" y="203"/>
      <point x="124" y="364" type="curve"/>
      <point x="362" y="364" type="line"/>
      <point x="369" y="346"/>
      <point x="372" y="316"/>
      <point x="372" y="275" type="curve"/>
      <point x="372" y="230"/>
      <point x="363" y="194"/>
      <point x="345" y="166" type="curve"/>
      <point x="326" y="137"/>
      <point x="299" y="123"/>
    </contour>
    <contour>
      <point x="273" y="40" type="curve"/>
      <point x="342" y="40"/>
      <point x="394" y="78"/>
      <point x="428" y="154" type="curve"/>
      <point x="443" y="190"/>
      <point x="451" y="230"/>
      <point x="451" y="275" type="curve"/>
      <point x="451" y="295"/>
      <point x="449" y="324"/>
      <point x="444" y="361" type="curve"/>
      <point x="439" y="398"/>
      <point x="434" y="425"/>
      <point x="428" y="444" type="curve"/>
      <point x="124" y="444" type="line"/>
      <point x="126" y="545"/>
      <point x="158" y="619"/>
      <point x="220" y="666" type="curve"/>
      <point x="252" y="688"/>
      <point x="290" y="699"/>
      <point x="335" y="699" type="curve"/>
      <point x="402" y="699"/>
      <point x="455" y="670"/>
      <point x="494" y="611" type="curve"/>
      <point x="533" y="552"/>
      <point x="554" y="470"/>
      <point x="557" y="364" type="curve"/>
      <point x="631" y="364" type="line"/>
      <point x="631" y="476"/>
      <point x="606" y="574"/>
      <point x="557" y="657" type="curve"/>
      <point x="503" y="740"/>
      <point x="429" y="782"/>
      <point x="335" y="782" type="curve"/>
      <point x="272" y="782"/>
      <point x="218" y="766"/>
      <point x="175" y="735" type="curve"/>
      <point x="132" y="704"/>
      <point x="99" y="659"/>
      <point x="77" y="601" type="curve"/>
      <point x="56" y="544"/>
      <point x="45" y="480"/>
      <point x="45" y="408" type="curve"/>
      <point x="44" y="163"/>
      <point x="120" y="40"/>
    </contour>
  </outline>
</glyph>
<glyph name="_BM.init" format="2">
  <advance width="863"/>
  <outline>
    <contour>
      <point x="349" y="734" type="line"/>
      <point x="349" y="731"/>
      <point x="349" y="731"/>
      <point x="348" y="734" type="curve"/>
    </contour>
    <contour>
      <point x="264" y="123" type="curve"/>
      <point x="173" y="123"/>
      <point x="127" y="203"/>
      <point x="124" y="364" type="curve"/>
      <point x="362" y="364" type="line"/>
      <point x="369" y="346"/>
      <point x="372" y="316"/>
      <point x="372" y="275" type="curve"/>
      <point x="372" y="224"/>
      <point x="362" y="186"/>
      <point x="342" y="161" type="curve"/>
      <point x="321" y="136"/>
      <point x="295" y="123"/>
    </contour>
    <contour>
      <point x="337" y="782" type="line"/>
      <point x="249" y="778"/>
      <point x="179" y="745"/>
      <point x="127" y="683" type="curve"/>
      <point x="72" y="617"/>
      <point x="45" y="525"/>
      <point x="45" y="408" type="curve"/>
      <point x="45" y="285"/>
      <point x="64" y="193"/>
      <point x="101" y="132" type="curve"/>
      <point x="139" y="71"/>
      <point x="195" y="40"/>
      <point x="270" y="40" type="curve"/>
      <point x="305" y="40"/>
      <point x="337" y="50"/>
      <point x="364" y="69" type="curve"/>
      <point x="391" y="88"/>
      <point x="413" y="116"/>
      <point x="428" y="153" type="curve"/>
      <point x="443" y="190"/>
      <point x="451" y="230"/>
      <point x="451" y="275" type="curve"/>
      <point x="451" y="296"/>
      <point x="449" y="325"/>
      <point x="445" y="360" type="curve"/>
      <point x="440" y="396"/>
      <point x="435" y="424"/>
      <point x="428" y="444" type="curve"/>
      <point x="124" y="444" type="line"/>
      <point x="125" y="522"/>
      <point x="146" y="584"/>
      <point x="187" y="630" type="curve"/>
      <point x="227" y="676"/>
      <point x="282" y="699"/>
      <point x="352" y="699" type="curve"/>
      <point x="423" y="699"/>
      <point x="477" y="671"/>
      <point x="513" y="615" type="curve"/>
      <point x="549" y="559"/>
      <point x="571" y="475"/>
      <point x="579" y="364" type="curve"/>
      <point x="598" y="96" type="line"/>
      <point x="664" y="96" type="line"/>
      <point x="683" y="364" type="line"/>
      <point x="893" y="364" type="line"/>
      <point x="893" y="444" type="line"/>
      <point x="652" y="444" type="line"/>
      <point x="637" y="553"/>
      <point x="605" y="636"/>
      <point x="554" y="695" type="curve"/>
      <point x="515" y="739"/>
      <point x="468" y="766"/>
      <point x="411" y="777" type="curve"/>
      <point x="406" y="798" type="line"/>
      <point x="403" y="812"/>
      <point x="399" y="826"/>
      <point x="395" y="840" type="curve"/>
      <point x="431" y="840" type="line"/>
      <point x="478" y="840"/>
      <point x="515" y="842"/>
      <point x="542" y="847" type="curve"/>
      <point x="569" y="852"/>
      <point x="591" y="862"/>
      <point x="610" y="878" type="curve"/>
      <point x="610" y="955" type="line"/>
      <point x="575" y="932"/>
      <point x="515" y="920"/>
      <point x="431" y="920" type="curve"/>
      <point x="310" y="920" type="line"/>
      <point x="310" y="854" type="line"/>
      <point x="318" y="836"/>
      <point x="325" y="819"/>
      <point x="330" y="803" type="curve"/>
    </contour>
  </outline>
</glyph>
<glyph name="_BOI.init" format="2">
  <advance width="1224"/>
  <outline>
    <contour>
      <point x="668" y="444" type="curve"/>
      <point x="127" y="444" type="line"/>
      <point x="150" y="614"/>
      <point x="242" y="699"/>
      <point x="405" y="699" type="curve"/>
      <point x="505" y="699"/>
      <point x="578" y="659"/>
      <point x="625" y="578" type="curve"/>
      <point x="647" y="539"/>
      <point x="661" y="495"/>
    </contour>
    <contour>
      <point x="248" y="123" type="curve"/>
      <point x="214" y="123"/>
      <point x="188" y="133"/>
      <point x="170" y="153" type="curve"/>
      <point x="151" y="173"/>
      <point x="139" y="202"/>
      <point x="133" y="241" type="curve"/>
      <point x="127" y="278"/>
      <point x="124" y="319"/>
      <point x="124" y="364" type="curve"/>
      <point x="359" y="364" type="line"/>
      <point x="359" y="281" type="line"/>
      <point x="359" y="234"/>
      <point x="349" y="196"/>
      <point x="330" y="167" type="curve"/>
      <point x="310" y="138"/>
      <point x="283" y="123"/>
    </contour>
    <contour>
      <point x="538" y="123" type="curve"/>
      <point x="471" y="123"/>
      <point x="438" y="177"/>
      <point x="438" y="286" type="curve"/>
      <point x="438" y="364" type="line"/>
      <point x="673" y="364" type="line"/>
      <point x="672" y="247"/>
      <point x="653" y="175"/>
      <point x="617" y="147" type="curve"/>
      <point x="598" y="131"/>
      <point x="571" y="123"/>
    </contour>
    <contour>
      <point x="1036" y="-67" type="curve"/>
      <point x="1109" y="-31" type="line"/>
      <point x="1036" y="98"/>
      <point x="981" y="229"/>
      <point x="942" y="364" type="curve"/>
      <point x="1254" y="364" type="line"/>
      <point x="1254" y="444" type="line"/>
      <point x="748" y="444" type="line"/>
      <point x="731" y="585"/>
      <point x="674" y="684"/>
      <point x="575" y="741" type="curve"/>
      <point x="527" y="768"/>
      <point x="470" y="782"/>
      <point x="405" y="782" type="curve"/>
      <point x="331" y="782"/>
      <point x="267" y="765"/>
      <point x="213" y="731" type="curve"/>
      <point x="159" y="697"/>
      <point x="117" y="649"/>
      <point x="88" y="587" type="curve"/>
      <point x="59" y="526"/>
      <point x="45" y="455"/>
      <point x="45" y="375" type="curve"/>
      <point x="45" y="264"/>
      <point x="62" y="180"/>
      <point x="95" y="124" type="curve"/>
      <point x="128" y="68"/>
      <point x="179" y="40"/>
      <point x="249" y="40" type="curve"/>
      <point x="282" y="40"/>
      <point x="311" y="48"/>
      <point x="338" y="65" type="curve"/>
      <point x="364" y="81"/>
      <point x="383" y="104"/>
      <point x="396" y="135" type="curve"/>
      <point x="426" y="72"/>
      <point x="473" y="40"/>
      <point x="538" y="40" type="curve"/>
      <point x="681" y="40"/>
      <point x="753" y="148"/>
      <point x="752" y="364" type="curve"/>
      <point x="863" y="364" type="line"/>
      <point x="902" y="219"/>
      <point x="959" y="75"/>
    </contour>
  </outline>
</glyph>
<glyph name="_Dd.medi" format="2">
  <advance width="857"/>
  <outline>
    <contour>
      <point x="197" y="123" type="curve"/>
      <point x="118" y="124"/>
      <point x="79" y="166"/>
      <point x="79" y="251" type="curve"/>
      <point x="79" y="294"/>
      <point x="86" y="332"/>
      <point x="99" y="364" type="curve"/>
      <point x="296" y="364" type="line"/>
      <point x="309" y="332"/>
      <point x="316" y="294"/>
      <point x="316" y="251" type="curve"/>
      <point x="316" y="209"/>
      <point x="306" y="177"/>
      <point x="285" y="156" type="curve"/>
      <point x="264" y="134"/>
      <point x="235" y="123"/>
    </contour>
    <contour>
      <point x="197" y="40" type="curve"/>
      <point x="260" y="40"/>
      <point x="308" y="59"/>
      <point x="343" y="97" type="curve"/>
      <point x="378" y="134"/>
      <point x="395" y="185"/>
      <point x="395" y="249" type="curve"/>
      <point x="395" y="294"/>
      <point x="388" y="333"/>
      <point x="373" y="364" type="curve"/>
      <point x="573" y="364" type="line"/>
      <point x="592" y="96" type="line"/>
      <point x="658" y="96" type="line"/>
      <point x="677" y="364" type="line"/>
      <point x="887" y="364" type="line"/>
      <point x="887" y="444" type="line"/>
      <point x="0" y="444" type="line"/>
      <point x="0" y="364" type="line"/>
      <point x="20" y="364" type="line"/>
      <point x="7" y="333"/>
      <point x="0" y="294"/>
      <point x="0" y="249" type="curve"/>
      <point x="3" y="110"/>
      <point x="69" y="40"/>
    </contour>
  </outline>
</glyph>
<glyph name="_Dr.fina" format="2">
  <advance width="745"/>
  <anchor x="0" y="0" name="baluda"/>
  <anchor x="0" y="0" name="dagalga"/>
  <outline>
    <contour>
      <point x="178" y="28" type="line"/>
      <point x="77" y="364" type="line"/>
      <point x="156" y="364" type="line"/>
      <point x="291" y="96" type="line"/>
    </contour>
    <contour>
      <point x="252" y="643" type="curve"/>
      <point x="191" y="712" type="line"/>
      <point x="152" y="673"/>
      <point x="112" y="625"/>
      <point x="70" y="566" type="curve"/>
      <point x="113" y="527" type="line"/>
      <point x="146" y="562"/>
      <point x="192" y="600"/>
    </contour>
    <contour>
      <point x="0" y="444" type="line"/>
      <point x="0" y="364" type="line"/>
      <point x="136" y="-90" type="line"/>
      <point x="390" y="62" type="line"/>
      <point x="238" y="364" type="line"/>
      <point x="525" y="364" type="line"/>
      <point x="595" y="364"/>
      <point x="623" y="335"/>
      <point x="623" y="279" type="curve"/>
      <point x="623" y="235"/>
      <point x="616" y="196"/>
      <point x="601" y="162" type="curve"/>
      <point x="675" y="162" type="line"/>
      <point x="692" y="199"/>
      <point x="700" y="238"/>
      <point x="700" y="279" type="curve"/>
      <point x="700" y="389"/>
      <point x="644" y="444"/>
      <point x="525" y="444" type="curve"/>
    </contour>
  </outline>
</glyph>
<glyph name="_Dt.init" format="2">
  <advance width="673"/>
  <anchor x="0" y="0" name="baluda"/>
  <anchor x="0" y="0" name="dagalga"/>
  <outline>
    <contour>
      <point x="330" y="-266" type="curve"/>
      <point x="400" y="-224" type="line"/>
      <point x="383" y="-199"/>
      <point x="363" y="-168"/>
      <point x="341" y="-130" type="curve"/>
      <point x="351" y="-131"/>
      <point x="352" y="-131"/>
      <point x="357" y="-131" type="curve"/>
      <point x="463" y="-131"/>
      <point x="531" y="-57"/>
      <point x="531" y="50" type="curve"/>
      <point x="531" y="157"/>
      <point x="462" y="232"/>
      <point x="355" y="232" type="curve"/>
      <point x="284" y="232"/>
      <point x="235" y="201"/>
      <point x="208" y="139" type="curve"/>
      <point x="188" y="192"/>
      <point x="165" y="267"/>
      <point x="139" y="364" type="curve"/>
      <point x="703" y="364" type="line"/>
      <point x="703" y="444" type="line"/>
      <point x="45" y="444" type="line"/>
      <point x="60" y="364" type="line"/>
      <point x="84" y="255"/>
      <point x="118" y="150"/>
      <point x="161" y="48" type="curve"/>
      <point x="204" y="-54"/>
      <point x="261" y="-158"/>
    </contour>
    <contour>
      <point x="354" y="-57" type="curve"/>
      <point x="291" y="-57"/>
      <point x="256" y="-14"/>
      <point x="256" y="49" type="curve"/>
      <point x="256" y="112"/>
      <point x="291" y="153"/>
      <point x="355" y="153" type="curve"/>
      <point x="419" y="153"/>
      <point x="453" y="112"/>
      <point x="453" y="48" type="curve"/>
      <point x="453" y="-20"/>
      <point x="414" y="-57"/>
    </contour>
    <contour>
      <point x="265" y="586" type="curve"/>
      <point x="308" y="547" type="line"/>
      <point x="341" y="582"/>
      <point x="387" y="620"/>
      <point x="447" y="663" type="curve"/>
      <point x="386" y="732" type="line"/>
      <point x="347" y="693"/>
      <point x="307" y="645"/>
    </contour>
  </outline>
</glyph>
<glyph name="_GA.init" format="2">
  <advance width="714"/>
  <outline>
    <contour>
      <point x="174" y="42" type="curve"/>
      <point x="245" y="85" type="line"/>
      <point x="204" y="144"/>
      <point x="173" y="200"/>
      <point x="154" y="251" type="curve"/>
      <point x="134" y="302"/>
      <point x="124" y="358"/>
      <point x="124" y="417" type="curve"/>
      <point x="124" y="492"/>
      <point x="137" y="549"/>
      <point x="164" y="587" type="curve"/>
      <point x="191" y="625"/>
      <point x="228" y="644"/>
      <point x="275" y="644" type="curve"/>
      <point x="314" y="644"/>
      <point x="344" y="633"/>
      <point x="365" y="610" type="curve"/>
      <point x="386" y="587"/>
      <point x="402" y="554"/>
      <point x="411" y="510" type="curve"/>
      <point x="420" y="467"/>
      <point x="426" y="418"/>
      <point x="430" y="363" type="curve"/>
      <point x="449" y="96" type="line"/>
      <point x="515" y="96" type="line"/>
      <point x="534" y="364" type="line"/>
      <point x="744" y="364" type="line"/>
      <point x="744" y="444" type="line"/>
      <point x="503" y="444" type="line"/>
      <point x="489" y="565"/>
      <point x="453" y="648"/>
      <point x="396" y="692" type="curve"/>
      <point x="365" y="715"/>
      <point x="324" y="727"/>
      <point x="274" y="727" type="curve"/>
      <point x="182" y="727"/>
      <point x="115" y="679"/>
      <point x="74" y="582" type="curve"/>
      <point x="55" y="535"/>
      <point x="45" y="480"/>
      <point x="45" y="417" type="curve"/>
      <point x="45" y="299"/>
      <point x="88" y="174"/>
    </contour>
  </outline>
</glyph>
<glyph name="_GL.medi" format="2">
  <advance width="666"/>
  <outline>
    <contour>
      <point x="336" y="700" type="curve"/>
      <point x="305" y="718"/>
      <point x="269" y="727"/>
      <point x="226" y="727" type="curve"/>
      <point x="181" y="727"/>
      <point x="141" y="715"/>
      <point x="106" y="690" type="curve"/>
      <point x="71" y="665"/>
      <point x="44" y="629"/>
      <point x="25" y="582" type="curve"/>
      <point x="6" y="535"/>
      <point x="-3" y="480"/>
      <point x="-3" y="417" type="curve"/>
      <point x="-3" y="300"/>
      <point x="40" y="175"/>
      <point x="126" y="42" type="curve"/>
      <point x="197" y="85" type="line"/>
      <point x="155" y="147"/>
      <point x="124" y="203"/>
      <point x="105" y="254" type="curve"/>
      <point x="86" y="305"/>
      <point x="76" y="359"/>
      <point x="76" y="417" type="curve"/>
      <point x="76" y="494"/>
      <point x="90" y="551"/>
      <point x="117" y="588" type="curve"/>
      <point x="144" y="625"/>
      <point x="180" y="644"/>
      <point x="226" y="644" type="curve"/>
      <point x="261" y="644"/>
      <point x="289" y="635"/>
      <point x="309" y="618" type="curve"/>
      <point x="329" y="601"/>
      <point x="345" y="573"/>
      <point x="356" y="535" type="curve"/>
      <point x="367" y="496"/>
      <point x="376" y="439"/>
      <point x="382" y="364" type="curve"/>
      <point x="401" y="96" type="line"/>
      <point x="467" y="96" type="line"/>
      <point x="486" y="364" type="line"/>
      <point x="696" y="364" type="line"/>
      <point x="696" y="444" type="line"/>
      <point x="455" y="444" type="line"/>
      <point x="445" y="526"/>
      <point x="426" y="590"/>
      <point x="398" y="636" type="curve"/>
      <point x="401" y="702"/>
      <point x="422" y="769"/>
      <point x="460" y="838" type="curve"/>
      <point x="460" y="904" type="line"/>
      <point x="340" y="904" type="line"/>
      <point x="297" y="904"/>
      <point x="262" y="906"/>
      <point x="235" y="911" type="curve"/>
      <point x="208" y="915"/>
      <point x="183" y="925"/>
      <point x="160" y="940" type="curve"/>
      <point x="160" y="862" type="line"/>
      <point x="178" y="847"/>
      <point x="201" y="837"/>
      <point x="228" y="832" type="curve"/>
      <point x="255" y="827"/>
      <point x="293" y="824"/>
      <point x="340" y="824" type="curve"/>
      <point x="374" y="824" type="line"/>
      <point x="356" y="786"/>
      <point x="343" y="744"/>
    </contour>
  </outline>
</glyph>
<glyph name="_Gx.medi" format="2">
  <advance width="331"/>
  <anchor x="-47" y="0" name="baluda"/>
  <anchor x="-47" y="0" name="dagalga"/>
  <outline>
    <contour>
      <point x="210" y="-80" type="curve"/>
      <point x="149" y="-11" type="line"/>
      <point x="110" y="-50"/>
      <point x="70" y="-98"/>
      <point x="28" y="-157" type="curve"/>
      <point x="71" y="-196" type="line"/>
      <point x="104" y="-162"/>
      <point x="150" y="-123"/>
    </contour>
    <contour>
      <point x="425" y="-80" type="curve"/>
      <point x="364" y="-11" type="line"/>
      <point x="326" y="-50"/>
      <point x="286" y="-98"/>
      <point x="243" y="-157" type="curve"/>
      <point x="286" y="-196" type="line"/>
      <point x="319" y="-162"/>
      <point x="365" y="-123"/>
    </contour>
    <contour>
      <point x="94" y="70" type="curve"/>
      <point x="168" y="112" type="line"/>
      <point x="111" y="206"/>
      <point x="77" y="294"/>
      <point x="77" y="400" type="curve"/>
      <point x="77" y="489"/>
      <point x="120" y="543"/>
      <point x="200" y="543" type="curve"/>
      <point x="272" y="543"/>
      <point x="322" y="485"/>
      <point x="330" y="364" type="curve"/>
      <point x="404" y="364" type="line"/>
      <point x="397" y="509"/>
      <point x="337" y="626"/>
      <point x="200" y="626" type="curve"/>
      <point x="77" y="626"/>
      <point x="-2" y="537"/>
      <point x="-2" y="400" type="curve"/>
      <point x="-2" y="296"/>
      <point x="30" y="186"/>
    </contour>
  </outline>
</glyph>
<glyph name="_K2A.medi" format="2">
  <advance width="669"/>
  <outline>
    <contour>
      <point x="199" y="35" type="curve"/>
      <point x="261" y="90" type="line"/>
      <point x="140" y="221"/>
      <point x="79" y="330"/>
      <point x="79" y="419" type="curve"/>
      <point x="79" y="511"/>
      <point x="100" y="576"/>
      <point x="142" y="614" type="curve"/>
      <point x="164" y="634"/>
      <point x="193" y="644"/>
      <point x="229" y="644" type="curve"/>
      <point x="268" y="644"/>
      <point x="298" y="633"/>
      <point x="320" y="611" type="curve"/>
      <point x="341" y="589"/>
      <point x="357" y="556"/>
      <point x="366" y="512" type="curve"/>
      <point x="375" y="470"/>
      <point x="381" y="421"/>
      <point x="385" y="364" type="curve"/>
      <point x="404" y="96" type="line"/>
      <point x="470" y="96" type="line"/>
      <point x="489" y="364" type="line"/>
      <point x="699" y="364" type="line"/>
      <point x="699" y="444" type="line"/>
      <point x="458" y="444" type="line"/>
      <point x="444" y="565"/>
      <point x="408" y="648"/>
      <point x="351" y="692" type="curve"/>
      <point x="320" y="715"/>
      <point x="279" y="727"/>
      <point x="229" y="727" type="curve"/>
      <point x="180" y="727"/>
      <point x="138" y="714"/>
      <point x="104" y="688" type="curve"/>
      <point x="69" y="662"/>
      <point x="43" y="625"/>
      <point x="26" y="577" type="curve"/>
      <point x="9" y="531"/>
      <point x="0" y="478"/>
      <point x="0" y="419" type="curve"/>
      <point x="0" y="96" type="line"/>
      <point x="66" y="96" type="line"/>
      <point x="74" y="215" type="line"/>
      <point x="101" y="158"/>
      <point x="142" y="98"/>
    </contour>
  </outline>
</glyph>
<glyph name="_K2Aa.fina" format="2">
  <advance width="976"/>
  <outline>
    <contour>
      <point x="670" y="-264" type="curve"/>
      <point x="752" y="-264" type="line"/>
      <point x="738" y="-237"/>
      <point x="731" y="-212"/>
      <point x="731" y="-187" type="curve"/>
      <point x="731" y="-158"/>
      <point x="736" y="-133"/>
      <point x="747" y="-110" type="curve"/>
      <point x="757" y="-88"/>
      <point x="774" y="-62"/>
      <point x="798" y="-31" type="curve"/>
      <point x="841" y="22"/>
      <point x="874" y="71"/>
      <point x="897" y="116" type="curve"/>
      <point x="920" y="161"/>
      <point x="931" y="204"/>
      <point x="931" y="245" type="curve"/>
      <point x="929" y="378"/>
      <point x="852" y="444"/>
      <point x="700" y="444" type="curve"/>
      <point x="458" y="444" type="line"/>
      <point x="444" y="565"/>
      <point x="408" y="648"/>
      <point x="351" y="692" type="curve"/>
      <point x="320" y="715"/>
      <point x="279" y="727"/>
      <point x="229" y="727" type="curve"/>
      <point x="180" y="727"/>
      <point x="138" y="714"/>
      <point x="104" y="688" type="curve"/>
      <point x="69" y="662"/>
      <point x="43" y="625"/>
      <point x="26" y="577" type="curve"/>
      <point x="9" y="531"/>
      <point x="0" y="478"/>
      <point x="0" y="419" type="curve"/>
      <point x="0" y="96" type="line"/>
      <point x="66" y="96" type="line"/>
      <point x="74" y="215" type="line"/>
      <point x="101" y="158"/>
      <point x="142" y="98"/>
      <point x="199" y="35" type="curve"/>
      <point x="261" y="90" type="line"/>
      <point x="140" y="221"/>
      <point x="79" y="330"/>
      <point x="79" y="419" type="curve"/>
      <point x="79" y="511"/>
      <point x="100" y="576"/>
      <point x="142" y="614" type="curve"/>
      <point x="164" y="634"/>
      <point x="193" y="644"/>
      <point x="229" y="644" type="curve"/>
      <point x="268" y="644"/>
      <point x="298" y="633"/>
      <point x="320" y="611" type="curve"/>
      <point x="341" y="589"/>
      <point x="357" y="556"/>
      <point x="366" y="512" type="curve"/>
      <point x="375" y="470"/>
      <point x="381" y="421"/>
      <point x="385" y="364" type="curve"/>
      <point x="404" y="96" type="line"/>
      <point x="470" y="96" type="line"/>
      <point x="489" y="364" type="line"/>
      <point x="699" y="364" type="line"/>
      <point x="802" y="367"/>
      <point x="853" y="326"/>
      <point x="853" y="243" type="curve"/>
      <point x="853" y="212"/>
      <point x="845" y="180"/>
      <point x="828" y="149" type="curve"/>
      <point x="811" y="117"/>
      <point x="784" y="77"/>
      <point x="746" y="28" type="curve"/>
      <point x="715" y="-13"/>
      <point x="691" y="-50"/>
      <point x="675" y="-83" type="curve"/>
      <point x="659" y="-116"/>
      <point x="651" y="-151"/>
      <point x="651" y="-187" type="curve"/>
      <point x="651" y="-217"/>
      <point x="657" y="-243"/>
    </contour>
  </outline>
</glyph>
<glyph name="_M.fina" format="2">
  <advance width="455"/>
  <outline>
    <contour>
      <point x="270" y="74" type="curve"/>
      <point x="270" y="186" type="line"/>
      <point x="270" y="326"/>
      <point x="295" y="447"/>
      <point x="345" y="549" type="curve"/>
      <point x="371" y="604"/>
      <point x="404" y="660"/>
      <point x="445" y="718" type="curve"/>
      <point x="346" y="718" type="line"/>
      <point x="243" y="577"/>
      <point x="191" y="399"/>
      <point x="191" y="183" type="curve"/>
      <point x="130" y="216"/>
      <point x="94" y="263"/>
      <point x="83" y="325" type="curve"/>
      <point x="76" y="358"/>
      <point x="71" y="400"/>
      <point x="70" y="449" type="curve"/>
      <point x="69" y="513"/>
      <point x="62" y="565"/>
      <point x="49" y="606" type="curve"/>
      <point x="89" y="606"/>
      <point x="122" y="609"/>
      <point x="148" y="614" type="curve"/>
      <point x="174" y="619"/>
      <point x="196" y="629"/>
      <point x="213" y="644" type="curve"/>
      <point x="213" y="722" type="line"/>
      <point x="184" y="698"/>
      <point x="128" y="686"/>
      <point x="45" y="686" type="curve"/>
      <point x="-27" y="686" type="line"/>
      <point x="-27" y="620" type="line"/>
      <point x="-9" y="564"/>
      <point x="0" y="507"/>
      <point x="0" y="449" type="curve"/>
      <point x="0" y="364" type="line"/>
      <point x="0" y="313"/>
      <point x="12" y="266"/>
      <point x="36" y="223" type="curve"/>
      <point x="59" y="179"/>
      <point x="92" y="143"/>
      <point x="133" y="116" type="curve"/>
      <point x="174" y="89"/>
      <point x="219" y="75"/>
    </contour>
  </outline>
</glyph>
<glyph name="_N.medi" format="2">
  <advance width="284"/>
  <outline>
    <contour>
      <point x="2" y="-124" type="curve"/>
      <point x="45" y="-163" type="line"/>
      <point x="80" y="-127"/>
      <point x="126" y="-88"/>
      <point x="184" y="-47" type="curve"/>
      <point x="123" y="22" type="line"/>
      <point x="84" y="-17"/>
      <point x="43" y="-66"/>
    </contour>
    <contour>
      <point x="19" y="96" type="line"/>
      <point x="85" y="96" type="line"/>
      <point x="104" y="364" type="line"/>
      <point x="314" y="364" type="line"/>
      <point x="314" y="444" type="line"/>
      <point x="0" y="444" type="line"/>
      <point x="0" y="364" type="line"/>
    </contour>
  </outline>
</glyph>
<glyph name="_Wc.init" format="2">
  <advance width="423"/>
  <anchor x="47" y="0" name="baluda"/>
  <anchor x="47" y="0" name="dagalga"/>
  <outline>
    <contour>
      <point x="266" y="82" type="curve"/>
      <point x="299" y="82"/>
      <point x="329" y="90"/>
      <point x="356" y="107" type="curve"/>
      <point x="356" y="190" type="line"/>
      <point x="333" y="173"/>
      <point x="303" y="165"/>
      <point x="266" y="165" type="curve"/>
      <point x="171" y="165"/>
      <point x="124" y="243"/>
      <point x="124" y="407" type="curve"/>
      <point x="124" y="544"/>
      <point x="181" y="609"/>
      <point x="273" y="609" type="curve"/>
      <point x="361" y="609"/>
      <point x="413" y="525"/>
      <point x="423" y="376" type="curve"/>
      <point x="503" y="386" type="line"/>
      <point x="493" y="556"/>
      <point x="424" y="692"/>
      <point x="273" y="692" type="curve"/>
      <point x="124" y="692"/>
      <point x="45" y="573"/>
      <point x="45" y="407" type="curve"/>
      <point x="45" y="192"/>
      <point x="122" y="82"/>
    </contour>
  </outline>
</glyph>
<glyph name="_WcI.init" format="2">
  <advance width="784"/>
  <anchor x="47" y="0" name="baluda"/>
  <anchor x="47" y="0" name="dagalga"/>
  <outline>
    <contour>
      <point x="462" y="220"/>
      <point x="519" y="76"/>
      <point x="596" y="-67" type="curve"/>
      <point x="669" y="-31" type="line"/>
      <point x="596" y="98"/>
      <point x="541" y="229"/>
      <point x="502" y="364" type="curve"/>
      <point x="814" y="364" type="line"/>
      <point x="814" y="444" type="line"/>
      <point x="496" y="444" type="line"/>
      <point x="473" y="590"/>
      <point x="404" y="692"/>
      <point x="273" y="692" type="curve"/>
      <point x="124" y="692"/>
      <point x="45" y="573"/>
      <point x="45" y="407" type="curve"/>
      <point x="45" y="192"/>
      <point x="122" y="82"/>
      <point x="266" y="82" type="curve"/>
      <point x="299" y="82"/>
      <point x="329" y="90"/>
      <point x="356" y="107" type="curve"/>
      <point x="356" y="190" type="line"/>
      <point x="333" y="173"/>
      <point x="303" y="165"/>
      <point x="266" y="165" type="curve"/>
      <point x="171" y="165"/>
      <point x="124" y="243"/>
      <point x="124" y="407" type="curve"/>
      <point x="124" y="544"/>
      <point x="181" y="609"/>
      <point x="273" y="609" type="curve"/>
      <point x="361" y="609"/>
      <point x="413" y="525"/>
      <point x="423" y="364" type="curve"/>
    </contour>
    <contour>
      <point x="632" y="569" type="curve"/>
      <point x="595" y="569"/>
      <point x="564" y="601"/>
      <point x="564" y="638" type="curve"/>
      <point x="564" y="677"/>
      <point x="593" y="706"/>
      <point x="632" y="706" type="curve"/>
      <point x="674" y="706"/>
      <point x="701" y="677"/>
      <point x="701" y="638" type="curve"/>
      <point x="701" y="598"/>
      <point x="670" y="569"/>
    </contour>
    <contour>
      <point x="632" y="519" type="curve"/>
      <point x="698" y="519"/>
      <point x="751" y="572"/>
      <point x="751" y="638" type="curve"/>
      <point x="751" y="705"/>
      <point x="699" y="757"/>
      <point x="632" y="757" type="curve"/>
      <point x="566" y="757"/>
      <point x="513" y="704"/>
      <point x="513" y="638" type="curve"/>
      <point x="513" y="572"/>
      <point x="566" y="519"/>
    </contour>
  </outline>
</glyph>
<glyph name="_WcI.medi" format="2">
  <advance width="738"/>
  <anchor x="1" y="0" name="baluda"/>
  <anchor x="1" y="0" name="dagalga"/>
  <outline>
    <contour>
      <point x="416" y="220"/>
      <point x="473" y="76"/>
      <point x="550" y="-67" type="curve"/>
      <point x="623" y="-31" type="line"/>
      <point x="550" y="98"/>
      <point x="495" y="229"/>
      <point x="456" y="364" type="curve"/>
      <point x="768" y="364" type="line"/>
      <point x="768" y="444" type="line"/>
      <point x="450" y="444" type="line"/>
      <point x="427" y="590"/>
      <point x="358" y="692"/>
      <point x="227" y="692" type="curve"/>
      <point x="78" y="692"/>
      <point x="-1" y="573"/>
      <point x="-1" y="407" type="curve"/>
      <point x="-1" y="192"/>
      <point x="76" y="82"/>
      <point x="220" y="82" type="curve"/>
      <point x="253" y="82"/>
      <point x="283" y="90"/>
      <point x="310" y="107" type="curve"/>
      <point x="310" y="190" type="line"/>
      <point x="287" y="173"/>
      <point x="257" y="165"/>
      <point x="220" y="165" type="curve"/>
      <point x="125" y="165"/>
      <point x="78" y="243"/>
      <point x="78" y="407" type="curve"/>
      <point x="78" y="544"/>
      <point x="135" y="609"/>
      <point x="227" y="609" type="curve"/>
      <point x="315" y="609"/>
      <point x="367" y="525"/>
      <point x="377" y="364" type="curve"/>
    </contour>
    <contour>
      <point x="592" y="569" type="curve"/>
      <point x="555" y="569"/>
      <point x="524" y="601"/>
      <point x="524" y="638" type="curve"/>
      <point x="524" y="677"/>
      <point x="553" y="706"/>
      <point x="592" y="706" type="curve"/>
      <point x="634" y="706"/>
      <point x="661" y="677"/>
      <point x="661" y="638" type="curve"/>
      <point x="661" y="598"/>
      <point x="630" y="569"/>
    </contour>
    <contour>
      <point x="592" y="519" type="curve"/>
      <point x="658" y="519"/>
      <point x="711" y="572"/>
      <point x="711" y="638" type="curve"/>
      <point x="711" y="705"/>
      <point x="659" y="757"/>
      <point x="592" y="757" type="curve"/>
      <point x="526" y="757"/>
      <point x="473" y="704"/>
      <point x="473" y="638" type="curve"/>
      <point x="473" y="572"/>
      <point x="526" y="519"/>
    </contour>
  </outline>
</glyph>
<glyph name="_Wd.init" format="2">
  <advance width="423"/>
  <anchor x="47" y="0" name="baluda"/>
  <anchor x="47" y="0" name="dagalga"/>
  <outline>
    <contour>
      <point x="266" y="82" type="curve"/>
      <point x="299" y="82"/>
      <point x="329" y="90"/>
      <point x="356" y="107" type="curve"/>
      <point x="356" y="190" type="line"/>
      <point x="333" y="173"/>
      <point x="303" y="165"/>
      <point x="266" y="165" type="curve"/>
      <point x="171" y="165"/>
      <point x="124" y="243"/>
      <point x="124" y="407" type="curve"/>
      <point x="124" y="544"/>
      <point x="181" y="609"/>
      <point x="273" y="609" type="curve"/>
      <point x="361" y="609"/>
      <point x="413" y="525"/>
      <point x="423" y="376" type="curve"/>
      <point x="503" y="386" type="line"/>
      <point x="493" y="556"/>
      <point x="424" y="692"/>
      <point x="273" y="692" type="curve"/>
      <point x="124" y="692"/>
      <point x="45" y="573"/>
      <point x="45" y="407" type="curve"/>
      <point x="45" y="192"/>
      <point x="122" y="82"/>
    </contour>
    <contour>
      <point x="621" y="519" type="curve"/>
      <point x="688" y="519"/>
      <point x="740" y="573"/>
      <point x="740" y="638" type="curve"/>
      <point x="740" y="705"/>
      <point x="686" y="757"/>
      <point x="621" y="757" type="curve"/>
      <point x="554" y="757"/>
      <point x="502" y="705"/>
      <point x="502" y="638" type="curve"/>
      <point x="502" y="571"/>
      <point x="555" y="519"/>
    </contour>
    <contour>
      <point x="621" y="569" type="curve"/>
      <point x="586" y="569"/>
      <point x="553" y="596"/>
      <point x="553" y="638" type="curve"/>
      <point x="553" y="677"/>
      <point x="582" y="706"/>
      <point x="621" y="706" type="curve"/>
      <point x="661" y="706"/>
      <point x="690" y="676"/>
      <point x="690" y="638" type="curve"/>
      <point x="690" y="599"/>
      <point x="660" y="569"/>
    </contour>
  </outline>
</glyph>
<glyph name="_WdI.fina" format="2">
  <advance width="988"/>
  <anchor x="1" y="0" name="baluda"/>
  <anchor x="1" y="0" name="dagalga"/>
  <outline>
    <contour>
      <point x="414" y="224"/>
      <point x="471" y="80"/>
      <point x="550" y="-67" type="curve"/>
      <point x="623" y="-31" type="line"/>
      <point x="550" y="100"/>
      <point x="494" y="231"/>
      <point x="456" y="364" type="curve"/>
      <point x="768" y="364" type="line"/>
      <point x="838" y="364"/>
      <point x="866" y="333"/>
      <point x="866" y="279" type="curve"/>
      <point x="866" y="235"/>
      <point x="858" y="196"/>
      <point x="844" y="162" type="curve"/>
      <point x="918" y="162" type="line"/>
      <point x="935" y="197"/>
      <point x="943" y="236"/>
      <point x="943" y="279" type="curve"/>
      <point x="943" y="389"/>
      <point x="885" y="444"/>
      <point x="768" y="444" type="curve"/>
      <point x="450" y="444" type="line"/>
      <point x="427" y="590"/>
      <point x="358" y="692"/>
      <point x="227" y="692" type="curve"/>
      <point x="78" y="692"/>
      <point x="-1" y="573"/>
      <point x="-1" y="407" type="curve"/>
      <point x="-1" y="192"/>
      <point x="76" y="82"/>
      <point x="220" y="82" type="curve"/>
      <point x="253" y="82"/>
      <point x="283" y="90"/>
      <point x="310" y="107" type="curve"/>
      <point x="310" y="190" type="line"/>
      <point x="287" y="173"/>
      <point x="257" y="165"/>
      <point x="220" y="165" type="curve"/>
      <point x="125" y="165"/>
      <point x="78" y="243"/>
      <point x="78" y="407" type="curve"/>
      <point x="78" y="544"/>
      <point x="135" y="609"/>
      <point x="227" y="609" type="curve"/>
      <point x="315" y="609"/>
      <point x="367" y="525"/>
      <point x="377" y="364" type="curve"/>
    </contour>
  </outline>
</glyph>
<glyph name="_WdI.medi" format="2">
  <advance width="738"/>
  <anchor x="1" y="0" name="baluda"/>
  <anchor x="1" y="0" name="dagalga"/>
  <outline>
    <contour>
      <point x="416" y="220"/>
      <point x="473" y="76"/>
      <point x="550" y="-67" type="curve"/>
      <point x="623" y="-31" type="line"/>
      <point x="550" y="98"/>
      <point x="495" y="229"/>
      <point x="456" y="364" type="curve"/>
      <point x="768" y="364" type="line"/>
      <point x="768" y="444" type="line"/>
      <point x="450" y="444" type="line"/>
      <point x="427" y="590"/>
      <point x="358" y="692"/>
      <point x="227" y="692" type="curve"/>
      <point x="78" y="692"/>
      <point x="-1" y="573"/>
      <point x="-1" y="407" type="curve"/>
      <point x="-1" y="192"/>
      <point x="76" y="82"/>
      <point x="220" y="82" type="curve"/>
      <point x="253" y="82"/>
      <point x="283" y="90"/>
      <point x="310" y="107" type="curve"/>
      <point x="310" y="190" type="line"/>
      <point x="287" y="173"/>
      <point x="257" y="165"/>
      <point x="220" y="165" type="curve"/>
      <point x="125" y="165"/>
      <point x="78" y="243"/>
      <point x="78" y="407" type="curve"/>
      <point x="78" y="544"/>
      <point x="135" y="609"/>
      <point x="227" y="609" type="curve"/>
      <point x="315" y="609"/>
      <point x="367" y="525"/>
      <point x="377" y="364" type="curve"/>
    </contour>
  </outline>
</glyph>
